<svg xmlns="http://www.w3.org/2000/svg" viewBox="0 0 321.94 325.28"><g id="Layer_2" data-name="Layer 2"><g id="Layer_1-2" data-name="Layer 1"><path d="M0,159.47c9.53,1.59,19.06,3.16,28.58,4.79,11.29,1.93,22.56,4,33.86,5.84,8.51,1.42,17,2.65,25.56,4,7.65,1.22,15.29,2.48,22.93,3.72l.71.08c.51-4.26,1-8.49,1.48-12.51-1.88,0-3.78.12-5.66,0a13.22,13.22,0,0,1-10.6-6.54c-3.17-5-4.57-10.48-3-16.35.55-2.07,1.77-4,2.76-6.12-1.86-1.49-4-3.14-6.07-4.87-7-5.81-13.93-11.62-20.82-17.51a23.75,23.75,0,0,1-6.29-8.51c-1.81-4.1-.57-6.5,3.88-7A22.67,22.67,0,0,1,85,104.3c3,2.63,6,5.34,9.16,7.88,5.93,4.81,11.94,9.51,17.89,14.29a2.1,2.1,0,0,0,2.17.43,16.52,16.52,0,0,1,9.23.15c4.09-10.75,8.57-21.35,14.81-31.34-2.65-1.47-5.18-3.06-7.87-4.33-5.63-2.66-11.34-5.12-17-7.7-3.46-1.58-6.92-3.22-9.4-6.24a19.63,19.63,0,0,1-4.66-15.82c.52-3.58,2.1-5.45,5.69-6Q116.46,54,127.9,52.5c2.09-.28,4.2-.45,6.32-.68.09-2,.12-3.86.28-5.76a24.42,24.42,0,0,1,5.57-13.64,26.67,26.67,0,0,0,2.92-4.5,6.36,6.36,0,0,0-.06-5.88,14.21,14.21,0,0,1-1-9.58,6.84,6.84,0,0,1,5-5.3c5.47-1.67,10.39-.25,15,2.7a18.44,18.44,0,0,1,2,1.53,13.42,13.42,0,0,0,9.87,3.24A30.36,30.36,0,0,0,184,12a53,53,0,0,1-.28-5.5,6.13,6.13,0,0,1,3.67-5.36A11.09,11.09,0,0,1,195,.3a18.56,18.56,0,0,1,15.1,16,2.38,2.38,0,0,0,.76,1.35c14.38,11.66,22.86,26.82,26.61,44.79a84.7,84.7,0,0,1,1.95,20,14.31,14.31,0,0,0,2.45,8.4c9.39,15.34,15.5,32,19.33,49.51A170,170,0,0,1,265,173a4.63,4.63,0,0,0,.08.49l39.95-9.11c0,2.53.08,4.87,0,7.2a233.48,233.48,0,0,1-14,70.55q-2,5.56-3.85,11.2a1.73,1.73,0,0,0,.32,1.44q16.77,18.69,33.62,37.3a2.23,2.23,0,0,1,.52,2.73,54,54,0,0,1-29.57,30.3,1.67,1.67,0,0,1-2.09-.31c-11.53-10-22.76-20.35-33.48-31.22-5.58-5.65-11-11.51-16.39-17.32a2.87,2.87,0,0,0-2.5-1q-9.45.36-18.92.59c-9.46.22-18.93.58-28.39.53-7.14,0-14.28-.64-21.42-1-12.05-.58-24.1-1.07-36.14-1.78a285.43,285.43,0,0,1-41.24-5.79c-2.85-.59-5.71-1.16-8.54-1.82a5.23,5.23,0,0,1-2-1,210.69,210.69,0,0,1-28.22-27.81C34.07,215.37,18.24,191.55,4,166.62c-1.32-2.31-2.67-4.61-4-6.91Z"/></g></g></svg>